<svg height="77.61201534704426" version="1.1" width="200.09376595224882" xmlns="http://www.w3.org/2000/svg" xmlns:xlink="http://www.w3.org/1999/xlink" style="overflow: hidden; position: relative; left: -0.5px; top: -0.796875px;" viewBox="184.90625 147.99998465295573 200.09376595224882 77.61201534704426" preserveAspectRatio="xMinYMin" id="main_svg"><desc style="-webkit-tap-highlight-color: rgba(0, 0, 0, 0);">Created with Logotizer</desc><defs style="-webkit-tap-highlight-color: rgba(0, 0, 0, 0);"></defs><path fill="#ffffff" stroke="none" d="M-80.91,0L-80.91,-4.08L-77.32,-5.53L-77.32,-28.08L-80.91,-29.53L-80.91,-33.61L-69.87,-33.84L-66.23,-33.84Q-60.23,-33.84,-56.99,-31.36Q-53.74,-28.88,-53.74,-24.05Q-53.74,-17.72,-59.18,-14.98Q-58.01,-13.59,-57.16,-11.86L-53.93,-5.27L-50.67,-4.08L-50.67,0L-59.55,0L-63.59,-8.88Q-64.05,-9.96,-64.32,-10.5Q-64.59,-11.04,-64.95,-11.64Q-65.3,-12.23,-65.55,-12.47Q-65.81,-12.7,-66.22,-12.94Q-66.63,-13.17,-67.09,-13.23Q-67.55,-13.29,-68.2,-13.29L-69.87,-13.29L-69.87,-5.53L-66.42,-4.08L-66.42,0L-80.91,0M-69.87,-18.33L-67.15,-18.33Q-64.29,-18.33,-62.72,-19.64Q-61.15,-20.95,-61.15,-23.37Q-61.15,-25.45,-62.44,-26.77Q-63.73,-28.08,-65.93,-28.08L-69.87,-28.08L-69.87,-18.33ZM-48.05,0L-48.05,-4.08L-44.44,-5.53L-44.44,-28.08L-48.05,-29.53L-48.05,-33.61L-37.01,-33.84L-23.55,-33.84L-23.55,-24.73L-28.03,-24.73L-29.23,-28.08L-37.01,-28.08L-37.01,-19.69L-27.07,-19.69L-27.07,-14.39L-37.01,-14.39L-37.01,-5.53L-32.58,-4.08L-32.58,0L-48.05,0ZM-21.66,-19.92L-21.66,-24.59L-17.2,-25.2L-17.2,-31.83L-10.01,-33.12L-10.01,-25.2L-3.28,-25.2L-3.28,-19.92L-10.01,-19.92L-10.01,-9.35Q-10.01,-6.98,-9.47,-6.01Q-8.93,-5.04,-7.45,-5.04Q-6.61,-5.04,-5.47,-5.41Q-4.34,-5.79,-3.66,-6.14L-1.95,-2.48Q-5.93,0.47,-10.1,0.47Q-12.12,0.47,-13.54,-0.2Q-14.95,-0.87,-15.74,-2.16Q-16.52,-3.45,-16.86,-5.07Q-17.2,-6.7,-17.2,-8.88L-17.2,-19.92L-21.66,-19.92ZM0.21,-12.73Q0.21,-19.15,3.73,-22.77Q7.24,-26.39,13.17,-26.39Q18.98,-26.39,22.13,-23.02Q25.27,-19.64,25.27,-13.43Q25.27,-6.98,21.8,-3.26Q18.33,0.47,12.45,0.47Q0.21,0.47,0.21,-12.73M7.64,-12.96Q7.64,-9,8.85,-7.14Q10.05,-5.27,12.68,-5.27Q15.33,-5.27,16.57,-7.11Q17.81,-8.95,17.81,-13.2Q17.81,-16.95,16.63,-18.8Q15.45,-20.65,12.91,-20.65Q10.2,-20.65,8.92,-18.9Q7.64,-17.16,7.64,-12.96ZM27.66,-21.84L27.66,-25.69L38.7,-25.92L38.7,-9.35Q38.7,-7.34,39.36,-6.43Q40.03,-5.53,41.63,-5.53Q42.49,-5.53,43.37,-5.8Q44.25,-6.07,44.88,-6.45Q45.52,-6.82,46.02,-7.2Q46.52,-7.57,46.78,-7.83L47.04,-8.11L47.04,-20.65L43.2,-21.84L43.2,-25.69L54.23,-25.92L54.23,-5.04L58.08,-4.08L58.08,-0.33L47.95,0L47.48,-3.35Q47.32,-3.19,47.04,-2.93Q46.76,-2.67,45.84,-2.02Q44.93,-1.36,43.99,-0.86Q43.05,-0.35,41.71,0.06Q40.36,0.47,39.07,0.47Q35.48,0.47,33.49,-1.8Q31.5,-4.08,31.5,-8.11L31.5,-20.65L27.66,-21.84ZM60.73,0L60.73,-3.84L64.57,-5.04L64.57,-20.65L60.73,-21.84L60.73,-25.69L70.8,-25.92L71.23,-22.62Q71.37,-22.78,71.63,-23.03Q71.88,-23.27,72.64,-23.93Q73.41,-24.59,74.17,-25.08Q74.93,-25.57,75.97,-25.98Q77.02,-26.39,77.91,-26.39Q79.08,-26.39,80.19,-26.18Q81.3,-25.97,81.82,-25.76L82.36,-25.55L81.98,-16.31L77.67,-16.31L76.95,-20.39Q75.7,-20.39,74.41,-19.72Q73.13,-19.05,72.45,-18.38L71.77,-17.72L71.77,-5.04L76.57,-3.84L76.57,0L60.73,0Z" transform="matrix(1,0,0,1,267.5,207.112)" style="-webkit-tap-highlight-color: rgba(0, 0, 0, 0);" stroke-width="1"></path><path fill="#7b61ff" stroke="none" d="M137.087,22.92A9.995,9.995,0,0,0,122.91799999999999,22.969L94.725,51.16L24.12,37.04L17.060000000000002,44.1L66.482,79.4L45.302,100.58000000000001H17.06L10,107.64L38.242000000000004,121.76L52.362,150L59.422000000000004,142.94V114.7L80.605,93.52000000000001L115.906,142.94L122.96600000000001,135.88L108.846,65.28L137.03900000000002,37.089A10.013,10.013,0,0,0,137.08700000000002,22.919999999999998Z" stroke-width="0" opacity="1" transform="matrix(0.2,0,0,0.2,357,144)" style="-webkit-tap-highlight-color: rgba(0, 0, 0, 0); opacity: 1;"></path></svg>